<svg xmlns="http://www.w3.org/2000/svg" viewBox="0 0 32 33" width="32" height="33">
	<style>
		tspan { white-space:pre }
		.shp0 { fill: #ebebeb } 
	</style>
	<g id="Section - Our Team">
		<g id="Person 1">
			<g id="Btn-Personal-Socmed">
				<path id="google+" fill-rule="evenodd" class="shp0" d="M16 0C24.84 0 32 7.17 32 16C32 24.84 24.84 32.01 16 32.01C7.16 32.01 0 24.84 0 16C0 7.17 7.16 0 16 0ZM14.65 7.27C15.44 7.94 17.08 9.36 17.08 12.05C17.08 14.67 15.65 15.91 14.21 17.08C13.77 17.54 13.25 18.04 13.25 18.82C13.25 19.6 13.77 20.03 14.14 20.34L15.37 21.34C16.88 22.65 18.25 23.85 18.25 26.3C18.25 29.63 15.13 33 9.25 33C4.29 33 1.89 30.55 1.89 27.93C1.89 26.65 2.51 24.85 4.53 23.61C6.65 22.26 9.52 22.08 11.06 21.98C10.58 21.34 10.04 20.66 10.04 19.57C10.04 18.96 10.21 18.61 10.38 18.18C10 18.22 9.63 18.25 9.28 18.25C5.66 18.25 3.61 15.45 3.61 12.69C3.61 11.06 4.32 9.25 5.79 7.94C7.75 6.27 10.07 5.99 11.92 5.99L18.96 5.99L16.78 7.27L14.65 7.27L14.65 7.27ZM12.23 23C11.95 22.97 11.78 22.97 11.44 22.97C11.13 22.97 9.28 23.04 7.85 23.54C7.09 23.82 4.9 24.67 4.9 27.19C4.9 29.7 7.27 31.51 10.93 31.51C14.21 31.51 15.95 29.88 15.95 27.68C15.95 25.87 14.83 24.92 12.23 23L12.23 23ZM13.22 16.27C14 15.45 14.07 14.32 14.07 13.68C14.07 11.13 12.6 7.16 9.76 7.16C8.87 7.16 7.92 7.62 7.37 8.33C6.79 9.07 6.61 10.03 6.61 10.95C6.61 13.33 7.95 17.26 10.89 17.26C11.75 17.26 12.67 16.84 13.22 16.27L13.22 16.27ZM21.91 6L23.91 6L23.91 14L21.91 14L21.91 6ZM18.91 9L26.91 9L26.91 11L18.91 11L18.91 9Z" />
			</g>
		</g>
	</g>
</svg>