<svg xmlns="http://www.w3.org/2000/svg" viewBox="0 0 76 73" width="31" height="24">
	 <style>
		tspan { white-space:pre }
		.twitter { fill: red} 
	</style>
<g id="twitter">
	<g>
		<path class="twitter" d="M64,12.2c-1.1,0.6-4.3,1.8-7.3,2.1c1.9-1,4.8-4.5,5.5-7.2c-1.9,1.2-6.1,2.9-8.2,2.9c0,0,0,0,0,0C51.5,7.6,48.2,6,44.4,6
			c-7.3,0-13.2,5.9-13.2,13.2c0,1,0.1,2,0.3,2.9h0c-9.9-0.3-21.5-5.2-28-13.7c-4,6.9-0.5,14.6,4,17.4C6,26,3.1,25.7,1.8,24.4
			C1.7,29,3.9,35.1,12,37.3c-1.6,0.8-4.3,0.6-5.5,0.4c0.4,3.9,5.9,9,11.8,9c-2.1,2.4-9.3,6.9-18.3,5.5C6.1,55.9,13.2,58,20.7,58
			c21.3,0,37.8-17.3,37-38.6c0,0,0-0.1,0-0.1c0-0.1,0-0.1,0-0.2c0-0.1,0-0.1,0-0.2C59.5,17.7,62.1,15.3,64,12.2z"/>
	</g>
</g>
</svg>
