<svg xmlns="http://www.w3.org/2000/svg" viewBox="0 0 33 32" width="33" height="32">
	<style>
		tspan { white-space:pre }
		.shp0 { fill: #ebebeb } 
	</style>
	<g id="Section - Our Team">
		<g id="Person 1">
			<g id="Btn-Personal-Socmed">
				<path id="linked-in" fill-rule="evenodd" class="shp0" d="M16 0C24.84 0 32 7.16 32 16C32 24.84 24.84 32 16 32C7.16 32 0 24.84 0 16C0 7.16 7.16 0 16 0ZM7.48 7.46C7.17 7.77 7.01 8.14 7.01 8.57C7.01 9.02 7.17 9.4 7.49 9.72C7.81 10.03 8.2 10.19 8.65 10.19C9.1 10.19 9.48 10.04 9.79 9.73C10.11 9.42 10.27 9.04 10.27 8.6C10.27 8.16 10.11 7.78 9.79 7.47C9.47 7.16 9.08 7 8.63 7C8.19 7 7.8 7.15 7.48 7.46ZM7 23L10.27 23L10.27 10.99L7 10.99L7 23ZM12.73 23L15.99 23L15.99 18.64C15.99 17.36 16.04 16.52 16.15 16.14C16.36 15.4 16.73 14.82 17.27 14.4C17.81 13.98 18.46 13.77 19.21 13.77C19.79 13.77 20.27 13.9 20.67 14.15C21.06 14.4 21.34 14.77 21.5 15.25C21.66 15.74 21.74 16.72 21.74 18.19L21.74 23L25 23L25 15.44C25 14.02 24.51 12.94 23.65 12.22C22.62 11.36 21.61 10.94 20.14 10.94C19.43 10.94 18.96 11.05 18.28 11.28C17.59 11.52 16.85 12 16 12.59L16 10.99L12.73 10.99L12.73 23Z" />
			</g>
		</g>
	</g>
</svg>