<svg xmlns="http://www.w3.org/2000/svg" viewBox="0 0 97 75" width="87" height="65">
	<style>
		tspan { white-space:pre }
		.shp0 { fill: #9f0088 } 
	</style>
	<g id="key-points">
		<g id="4">
			<path id="Shape 1" class="shp0" d="M16.38 2C16.38 2 16.37 2 16.37 2C15.48 2 14.65 2.34 14.01 2.96C13.38 3.59 13.02 4.43 13.02 5.32L13.02 55.19C13.02 57.02 14.54 58.51 16.39 58.51C24.22 58.53 37.34 60.14 46.39 69.51L46.39 17.32C46.39 16.7 46.23 16.12 45.93 15.64C38.5 3.81 24.23 2.02 16.38 2ZM84.98 55.19L84.98 5.32C84.98 4.43 84.62 3.59 83.99 2.96C83.35 2.34 82.52 2 81.63 2C81.63 2 81.62 2 81.62 2C73.77 2.02 59.5 3.81 52.07 15.64C51.77 16.12 51.61 16.7 51.61 17.32L51.61 69.5C60.66 60.14 73.78 58.53 81.61 58.51C83.46 58.51 84.98 57.02 84.98 55.19ZM92.64 13.5L90.2 13.5L90.2 55.19C90.2 59.86 86.35 63.66 81.62 63.67C74.98 63.69 64.03 64.97 56.27 72.23C69.69 68.98 83.83 71.09 91.88 72.91C92.89 73.14 93.93 72.9 94.74 72.27C95.54 71.63 96 70.69 96 69.67L96 16.82C96 14.99 94.49 13.5 92.64 13.5ZM7.8 55.19L7.8 13.5L5.36 13.5C3.51 13.5 2 14.99 2 16.82L2 69.67C2 70.68 2.46 71.63 3.26 72.27C4.07 72.9 5.11 73.14 6.12 72.91C14.17 71.09 28.31 68.98 41.73 72.23C33.97 64.97 23.02 63.69 16.38 63.67C11.65 63.66 7.8 59.86 7.8 55.19Z" />
		</g>
	</g>
</svg>