<svg xmlns="http://www.w3.org/2000/svg" viewBox="0 0 31 31" width="31" height="31">
	<defs>
		<clipPath clipPathUnits="userSpaceOnUse" id="cp1">
			<path d="M-969 -1094L471 -1094L471 221L-969 221Z" />
		</clipPath>
	</defs>
	<style>
		tspan { white-space:pre }
		.shp0 { fill: #e63d2e }
		.shp1 { fill: #ffffff }
	</style>
	<g id="create" clip-path="url(#cp1)">
		<g id="box">
			<g id="2">
				<g id="btn">
					<path id="bg" class="shp0" d="M1,16c0,8.28 6.72,15 15,15c8.28,0 15,-6.72 15,-15c0,-8.28 -6.72,-15 -15,-15c-8.28,0 -15,6.72 -15,15z" />
					<path id="cross" class="shp1" d="M19.81,19.81c0.23,-0.23 0.23,-0.6 0,-0.84l-2.99,-2.99l2.99,-2.99c0.23,-0.23 0.23,-0.61 0,-0.84c-0.23,-0.23 -0.6,-0.23 -0.84,0l-2.99,2.99l-2.99,-2.99c-0.23,-0.23 -0.61,-0.23 -0.84,0c-0.23,0.23 -0.23,0.61 0,0.84l2.99,2.99l-2.99,2.99c-0.23,0.23 -0.23,0.6 0,0.84c0.23,0.23 0.61,0.23 0.84,0l2.99,-2.99l2.99,2.99c0.12,0.12 0.27,0.17 0.42,0.17c0.15,0 0.3,-0.06 0.42,-0.17z" />
				</g>
			</g>
		</g>
	</g>
</svg>