<svg xmlns="http://www.w3.org/2000/svg" width="35" height="35" viewBox="0 0 35 35">
  <defs>
    <style>
      .cls-1 {
        fill: #fbfcff;
        fill-rule: evenodd;
      }
    </style>
  </defs>
  <path id="login.svg" class="cls-1" d="M259.29,977.958v-2.753a0.539,0.539,0,0,1,.915-0.494l6.89,5.516a0.667,0.667,0,0,1,0,1.2l-6.892,5.536a0.538,0.538,0,0,1-.914-0.493v-2.777c0-.3-0.489-0.5-1.087-0.431,0,0-10,1.071-10,13.737h25.708A1.1,1.1,0,0,0,275,995.906V963.094A1.1,1.1,0,0,0,273.906,962H241.094A1.1,1.1,0,0,0,240,963.094v25.619c4.256-10.566,18.2-10.234,18.2-10.234A0.957,0.957,0,0,0,259.29,977.958Z" transform="translate(-240 -962)"/>
</svg>
