<svg xmlns="http://www.w3.org/2000/svg" width="27" height="35" viewBox="0 0 27 35">
  <defs>
    <style>
      .cls-1 {
        fill: #fbfcff;
        fill-rule: evenodd;
      }
    </style>
  </defs>
  <path id="register.svg" class="cls-1" d="M90.954,1234H87.982v-29h22.527a1.5,1.5,0,0,0,0-3H86.488a1.5,1.5,0,0,0-1.494,1.5v32a1.5,1.5,0,0,0,1.494,1.5h4.466A1.5,1.5,0,0,0,90.954,1234Zm19.552-11.5a1.5,1.5,0,0,0-1.493,1.5l0,10h-5.568a1.5,1.5,0,0,0,0,3h7.062a1.5,1.5,0,0,0,1.494-1.5l0-11.5A1.5,1.5,0,0,0,110.506,1222.5Zm-1.213-12.74a3.525,3.525,0,0,0-4.816,1.3l-9.668,16.81a1.549,1.549,0,0,0-.2.81l0.13,3.85a1.5,1.5,0,0,0,.746,1.25,1.527,1.527,0,0,0,.747.2,1.466,1.466,0,0,0,.7-0.18l3.388-1.81a1.453,1.453,0,0,0,.591-0.58l9.669-16.81A3.557,3.557,0,0,0,109.293,1209.76Zm-1.3,3.34-9.455,16.44-0.9.48L97.609,1229l9.455-16.44A0.539,0.539,0,1,1,108,1213.1Zm-7.506.37a1.5,1.5,0,0,0-1.494-1.5H91.452a1.5,1.5,0,0,0,0,3H99A1.5,1.5,0,0,0,100.49,1213.47Zm-9.038,4.37a1.5,1.5,0,0,0,0,3h3.772a1.5,1.5,0,0,0,0-3H91.452Z" transform="translate(-85 -1202)"/>
</svg>
