<svg xmlns="http://www.w3.org/2000/svg" width="69" height="72" viewBox="0 0 69 72">
  <defs>
    <style>
      .cls-1 {
        fill: #2cc990;
        fill-rule: evenodd;
      }
    </style>
  </defs>
  <path id="address.svg" class="cls-1" d="M207.753,5538.8v-32.54a3.1,3.1,0,0,0-3.115-3.07H189.846v-8.85a2.311,2.311,0,0,0-1.2-2.02l-12.01-6.61a1.666,1.666,0,0,0-.2-0.09v-3.78H182.9a0.926,0.926,0,0,0,.934-0.92v-4.66a0.926,0.926,0,0,0-.934-0.92h-6.468v-0.42a0.935,0.935,0,0,0-1.869,0v10.7a1.653,1.653,0,0,0-.2.09l-12.01,6.61a2.31,2.31,0,0,0-1.2,2.02v8.85H146.361a3.1,3.1,0,0,0-3.114,3.07v32.54a3.76,3.76,0,0,0,1.571,7.2h61.363A3.76,3.76,0,0,0,207.753,5538.8Zm-12.04-24.89a1.8,1.8,0,0,1,1.815-1.79h3.393a1.8,1.8,0,0,1,1.814,1.79v3.35a1.8,1.8,0,0,1-1.814,1.79h-3.393a1.8,1.8,0,0,1-1.815-1.79v-3.35h0Zm0,10.76a1.8,1.8,0,0,1,1.815-1.79h3.393a1.8,1.8,0,0,1,1.814,1.79v3.35a1.8,1.8,0,0,1-1.814,1.79h-3.393a1.8,1.8,0,0,1-1.815-1.79v-3.35h0Zm-10.9-10.76a1.8,1.8,0,0,1,1.814-1.79h3.394a1.8,1.8,0,0,1,1.814,1.79v3.35a1.8,1.8,0,0,1-1.814,1.79h-3.394a1.8,1.8,0,0,1-1.814-1.79v-3.35Zm0,10.76a1.8,1.8,0,0,1,1.814-1.79h3.394a1.8,1.8,0,0,1,1.814,1.79v3.35a1.8,1.8,0,0,1-1.814,1.79h-3.394a1.8,1.8,0,0,1-1.814-1.79v-3.35Zm-9.311-30.32a5.07,5.07,0,1,1-5.14,5.07A5.105,5.105,0,0,1,175.5,5494.35Zm-5.147,29.12a1.8,1.8,0,0,1,1.815-1.79h6.663a1.8,1.8,0,0,1,1.815,1.79v14.11a1.8,1.8,0,0,1-.24.89h-9.813a1.8,1.8,0,0,1-.24-0.89v-14.11h0Zm-11.186-9.56a1.8,1.8,0,0,1,1.814-1.79h3.393a1.8,1.8,0,0,1,1.814,1.79v3.35a1.8,1.8,0,0,1-1.814,1.79h-3.393a1.8,1.8,0,0,1-1.814-1.79v-3.35Zm0,10.76a1.8,1.8,0,0,1,1.814-1.79h3.393a1.8,1.8,0,0,1,1.814,1.79v3.35a1.8,1.8,0,0,1-1.814,1.79h-3.393a1.8,1.8,0,0,1-1.814-1.79v-3.35Zm-10.9-10.76a1.8,1.8,0,0,1,1.815-1.79h3.393a1.8,1.8,0,0,1,1.814,1.79v3.35a1.8,1.8,0,0,1-1.814,1.79h-3.393a1.8,1.8,0,0,1-1.815-1.79v-3.35Zm0,10.76a1.8,1.8,0,0,1,1.815-1.79h3.393a1.8,1.8,0,0,1,1.814,1.79v3.35a1.8,1.8,0,0,1-1.814,1.79h-3.393a1.8,1.8,0,0,1-1.815-1.79v-3.35Z" transform="translate(-141 -5474)"/>
</svg>
