<svg xmlns="http://www.w3.org/2000/svg" viewBox="0 0 78 78" width="70" height="70">
	<style>
		tspan { white-space:pre }
		.shp0 { fill: #2c82c9 } 
	</style>
	<g id="key-points">
		<g id="3">
			<path id="Forma 1" class="shp0" d="M39 76.99C18.05 76.99 1.01 59.95 1.01 39.01C1.01 18.05 18.05 1.01 39 1.01C59.95 1.01 76.99 18.05 76.99 39.01C76.99 59.95 59.95 76.99 39 76.99ZM39 3.32C19.33 3.32 3.32 19.33 3.32 39.01C3.32 58.68 19.33 74.68 39 74.68C58.67 74.68 74.68 58.68 74.68 39.01C74.68 19.33 58.67 3.32 39 3.32ZM50.04 53.5C49.71 53.5 49.38 53.36 49.15 53.08L38.11 39.74C37.94 39.53 37.85 39.27 37.85 39L37.85 16.84C37.85 16.2 38.36 15.68 39 15.68C39.64 15.68 40.16 16.2 40.16 16.84L40.16 38.59L50.93 51.61C51.34 52.1 51.27 52.83 50.78 53.24C50.57 53.42 50.3 53.5 50.04 53.5Z" />
		</g>
	</g>
</svg>