<svg xmlns="http://www.w3.org/2000/svg" width="35" height="28" viewBox="0 0 35 28">
  <defs>
    <style>
      .cls-1 {
        fill: #fbfcff;
        fill-rule: evenodd;
      }
    </style>
  </defs>
  <path id="email.svg" class="cls-1" d="M370.449,246h-23.9A5.557,5.557,0,0,0,341,251.551v16.9A5.557,5.557,0,0,0,346.551,274h23.9A5.557,5.557,0,0,0,376,268.449v-16.9A5.557,5.557,0,0,0,370.449,246Zm-0.228,3L358.5,258.1,346.777,249h23.444ZM373,268.449A2.553,2.553,0,0,1,370.449,271h-23.9A2.553,2.553,0,0,1,344,268.449v-16.9a2.521,2.521,0,0,1,.141-0.8l13.438,10.433a1.5,1.5,0,0,0,1.84,0l13.44-10.435a2.534,2.534,0,0,1,.141.8v16.9Z" transform="translate(-341 -246)"/>
</svg>
