<svg xmlns="http://www.w3.org/2000/svg" viewBox="0 0 71 75" width="71" height="75">
	<style>
		tspan { white-space:pre }
		.shp0 { fill: #2cc990 } 
	</style>
	<g id="key-points">
		<g id="1">
			<path id="Forma 1" class="shp0" d="M67.75 66.8L67.75 34.26C67.75 32.57 66.36 31.19 64.64 31.19L49.85 31.19L49.85 22.34C49.85 21.5 49.39 20.73 48.65 20.32L36.64 13.71C36.57 13.68 36.5 13.64 36.43 13.62L36.43 9.84L42.9 9.84C43.42 9.84 43.84 9.43 43.84 8.92L43.84 4.26C43.84 3.75 43.42 3.34 42.9 3.34L36.43 3.34L36.43 2.92C36.43 2.41 36.02 2 35.5 2C34.98 2 34.57 2.41 34.57 2.92L34.57 13.62C34.5 13.64 34.43 13.68 34.36 13.71L22.35 20.32C21.61 20.73 21.15 21.5 21.15 22.34L21.15 31.19L6.36 31.19C4.64 31.19 3.25 32.57 3.25 34.26L3.25 66.8C1.92 67.39 1 68.7 1 70.23C1 72.31 2.71 74 4.82 74L66.18 74C68.29 74 70 72.31 70 70.23C70 68.7 69.08 67.39 67.75 66.8ZM55.71 41.91C55.71 40.92 56.53 40.12 57.53 40.12L60.92 40.12C61.92 40.12 62.74 40.92 62.74 41.91L62.74 45.26C62.74 46.25 61.92 47.05 60.92 47.05L57.53 47.05C56.53 47.05 55.71 46.25 55.71 45.26L55.71 41.91L55.71 41.91ZM55.71 52.67C55.71 51.68 56.53 50.88 57.53 50.88L60.92 50.88C61.92 50.88 62.74 51.68 62.74 52.67L62.74 56.02C62.74 57.01 61.92 57.81 60.92 57.81L57.53 57.81C56.53 57.81 55.71 57.01 55.71 56.02L55.71 52.67L55.71 52.67ZM44.81 41.91C44.81 40.92 45.62 40.12 46.63 40.12L50.02 40.12C51.02 40.12 51.83 40.92 51.83 41.91L51.83 45.26C51.83 46.25 51.02 47.05 50.02 47.05L46.63 47.05C45.62 47.05 44.81 46.25 44.81 45.26L44.81 41.91ZM44.81 52.67C44.81 51.68 45.62 50.88 46.63 50.88L50.02 50.88C51.02 50.88 51.83 51.68 51.83 52.67L51.83 56.02C51.83 57.01 51.02 57.81 50.02 57.81L46.63 57.81C45.62 57.81 44.81 57.01 44.81 56.02L44.81 52.67ZM35.5 22.35C38.34 22.35 40.64 24.62 40.64 27.42C40.64 30.22 38.34 32.49 35.5 32.49C32.66 32.49 30.36 30.22 30.36 27.42C30.36 24.62 32.66 22.35 35.5 22.35ZM30.35 51.47C30.35 50.48 31.17 49.68 32.17 49.68L38.83 49.68C39.83 49.68 40.65 50.48 40.65 51.47L40.65 65.58C40.65 65.9 40.56 66.2 40.41 66.47L30.59 66.47C30.44 66.2 30.35 65.9 30.35 65.58L30.35 51.47L30.35 51.47ZM19.17 41.91C19.17 40.92 19.98 40.12 20.98 40.12L24.37 40.12C25.38 40.12 26.19 40.92 26.19 41.91L26.19 45.26C26.19 46.25 25.38 47.05 24.37 47.05L20.98 47.05C19.98 47.05 19.17 46.25 19.17 45.26L19.17 41.91ZM19.17 52.67C19.17 51.68 19.98 50.88 20.98 50.88L24.37 50.88C25.38 50.88 26.19 51.68 26.19 52.67L26.19 56.02C26.19 57.01 25.38 57.81 24.37 57.81L20.98 57.81C19.98 57.81 19.17 57.01 19.17 56.02L19.17 52.67ZM8.26 41.91C8.26 40.92 9.08 40.12 10.08 40.12L13.47 40.12C14.47 40.12 15.29 40.92 15.29 41.91L15.29 45.26C15.29 46.25 14.47 47.05 13.47 47.05L10.08 47.05C9.08 47.05 8.26 46.25 8.26 45.26L8.26 41.91ZM8.26 52.67C8.26 51.68 9.08 50.88 10.08 50.88L13.47 50.88C14.47 50.88 15.29 51.68 15.29 52.67L15.29 56.02C15.29 57.01 14.47 57.81 13.47 57.81L10.08 57.81C9.08 57.81 8.26 57.01 8.26 56.02L8.26 52.67Z" />
		</g>
	</g>
</svg>