<svg xmlns="http://www.w3.org/2000/svg" width="34.563" height="32.969" viewBox="0 0 34.563 32.969">
  <defs>
    <style>
      .cls-1 {
        fill: #fbfcff;
        fill-rule: evenodd;
      }
    </style>
  </defs>
  <path id="search.svg" class="cls-1" d="M273.479,507.51l-3.865-3.294a15.462,15.462,0,0,0-4.449-16.692,14.636,14.636,0,0,0-20.939,1.869,15.452,15.452,0,0,0,1.829,21.411,14.618,14.618,0,0,0,16.856,1.586l3.855,3.3a5.134,5.134,0,0,0,7.356-.657A5.429,5.429,0,0,0,273.479,507.51Zm-26.366-7.589a8.783,8.783,0,0,1,1.957-6.365,8.4,8.4,0,0,1,12.022-1.081,8.864,8.864,0,0,1,1.058,12.286,8.4,8.4,0,0,1-12.022,1.081A8.7,8.7,0,0,1,247.113,499.921Z" transform="translate(-240.781 -483.969)"/>
</svg>
